Coordinates
version=1
nRows=26
nColumns=24
inDegrees=yes

Units are S.I. units (second, meters, Newtons, ...)
Angles are in degrees.

endheader
time	pelvis_tilt	pelvis_list	pelvis_rotation	pelvis_tx	pelvis_ty	pelvis_tz	hip_flexion_r	hip_adduction_r	hip_rotation_r	knee_angle_r	ankle_angle_r	subtalar_angle_r	mtp_angle_r	hip_flexion_l	hip_adduction_l	hip_rotation_l	knee_angle_l	ankle_angle_l	subtalar_angle_l	mtp_angle_l	lumbar_extension	lumbar_bending	lumbar_rotation
      4.34500000	    -19.38280023	     11.38596372	     -5.79228316	     -0.85328954	     -0.03621787	     -0.24460975	     22.85313422	     -8.79047819	      3.44593705	    -64.16758777	    -33.45726685	    -20.49406984	     -3.97499363	     39.71915149	     14.94368996	      5.07636758	    -23.55388551	     17.07901249	     10.49652006	    -72.43344388	     17.67464492	     -9.27574249	      7.94937648
      4.35000000	    -19.26133676	     11.39303773	     -5.87248156	     -0.84608666	     -0.03472230	     -0.24440226	     23.94974907	     -8.46993774	      3.64623851	    -65.64409616	    -31.02552003	    -22.23288085	    -12.85511521	     38.73345274	     14.91962914	      4.87140340	    -23.00830710	     17.61788299	     11.03146706	    -72.61214676	     17.58691652	     -9.23438715	      7.84095917
      4.35500000	    -19.13139064	     11.31908336	     -5.94186995	     -0.83892183	     -0.03313888	     -0.24394403	     25.03882736	     -8.04290572	      3.61269709	    -67.07225742	    -27.25610433	    -23.48694595	    -27.09172589	     37.71961783	     14.80744060	      4.68213941	    -22.46188733	     18.15794748	     11.62114056	    -72.81223832	     17.47803825	     -9.14699201	      7.69905059
      4.36000000	    -19.12167504	     10.25827942	     -6.13970438	     -0.83223228	     -0.03023617	     -0.24265271	     25.79856364	     -6.17923504	      3.86814184	    -65.98753920	    -10.43408079	    -26.37027738	   -133.11804136	     36.78927969	     13.56605869	      4.49394163	    -22.17078246	     18.98768968	     12.87007320	    -73.36554903	     17.31157487	     -8.11414230	      7.42085095
      4.36500000	    -19.03372655	     10.19306100	     -6.22095513	     -0.82511237	     -0.02856772	     -0.24249753	     26.73452382	     -5.73829183	      4.36269486	    -66.73673484	     -9.72831285	    -27.71517322	   -132.95949735	     35.76162528	     13.50555669	      4.50777251	    -21.48034743	     19.24942079	     13.13784392	    -73.31653743	     17.24551228	     -7.99150205	      7.36136559
      4.37000000	    -18.90260712	     10.11058964	     -6.34041735	     -0.81797906	     -0.02684899	     -0.24229855	     27.60617679	     -5.28352418	      4.84931458	    -67.39272741	     -8.99954184	    -28.84289460	   -132.75426715	     34.67762047	     13.42391506	      4.47463204	    -20.76878386	     19.49542850	     13.32085069	    -73.27518041	     17.13939541	     -7.84121530	      7.27477379
      4.37500000	    -18.76672004	      9.99409657	     -6.41852327	     -0.81085573	     -0.02511542	     -0.24210248	     28.43136774	     -4.82884573	      5.25855862	    -67.95797440	     -8.14125927	    -29.69417195	   -132.57895935	     33.56208160	     13.34037412	      4.55434388	    -20.01886522	     19.67962514	     13.45205865	    -73.24986664	     17.01678690	     -7.68197953	      7.17632963
      4.38000000	    -18.63381751	      9.84082784	     -6.46442611	     -0.80374853	     -0.02339211	     -0.24192452	     29.22327163	     -4.37466244	      5.58946202	    -68.43125979	     -7.15290380	    -30.28861732	   -132.49966865	     32.42768004	     13.24789727	      4.73547826	    -19.23816906	     19.81046846	     13.49417755	    -73.23300997	     16.88826661	     -7.49989858	      7.03906365
      4.38500000	    -18.49768067	      9.66530008	     -6.47093893	     -0.79662978	     -0.02166544	     -0.24177777	     29.97193748	     -3.94538286	      5.84322339	    -68.80537573	     -6.02680247	    -30.64064925	   -132.57005564	     31.25939721	     13.16010099	      5.02539587	    -18.40642201	     19.86360222	     13.45777662	    -73.22052965	     16.75021239	     -7.31654109	      6.86853165
      4.39000000	    -18.38593266	      9.41886314	     -6.46889036	     -0.78958694	     -0.01999801	     -0.24163052	     30.71390949	     -3.46203363	      6.03254928	    -69.08473997	     -4.77073850	    -30.77393618	   -132.77912633	     30.12625172	     13.00601830	      5.35918618	    -17.60623234	     19.93003441	     13.36009331	    -73.19620624	     16.61815207	     -7.06049793	      6.66668458
      4.39500000	    -18.25089280	      9.17241638	     -6.46551480	     -0.78252602	     -0.01827370	     -0.24150481	     31.39856717	     -3.01135855	      6.19844801	    -69.23577183	     -3.43681417	    -30.76957831	   -133.49846208	     28.89203582	     12.87263259	      5.96439010	    -16.65834475	     19.82241106	     12.99845033	    -73.13346539	     16.46815655	     -6.81555699	      6.51448447
      4.40000000	    -18.15182819	      8.86531380	     -6.42524231	     -0.77554449	     -0.01665825	     -0.24137015	     32.08658738	     -2.52444487	      6.30015437	    -69.31165386	     -1.89441461	    -30.48547355	   -134.32798933	     27.74177960	     12.66798294	      6.47174142	    -15.80254240	     19.77017569	     12.76689769	    -73.03967455	     16.33290727	     -6.52170402	      6.29340760
      4.40500000	    -18.07252778	      8.52178183	     -6.35417135	     -0.76862676	     -0.01510968	     -0.24123335	     32.76736289	     -2.02671612	      6.34772057	    -69.30266135	     -0.26711839	    -30.01431920	   -135.21494766	     26.61545970	     12.42546332	      7.05625059	    -14.95437785	     19.70989609	     12.52366335	    -72.93358542	     16.20579404	     -6.20803275	      6.02704883
      4.41000000	    -18.01683983	      8.12942482	     -6.24751885	     -0.76174382	     -0.01359348	     -0.24117410	     33.43060963	     -1.52010541	      6.32792194	    -69.18124506	      1.42464824	    -29.37741033	   -136.16959505	     25.52929406	     12.14133814	      7.64081920	    -14.13227128	     19.59421157	     12.23902565	    -72.81115305	     16.09210386	     -5.84779409	      5.72600531
      4.41500000	    -17.97799545	      7.72770430	     -6.11439001	     -0.75493059	     -0.01216995	     -0.24110489	     34.09397715	     -1.02627358	      6.27883030	    -68.98931613	      3.14970959	    -28.57512142	   -137.07821520	     24.48191345	     11.83669162	      8.24046062	    -13.33795712	     19.49172989	     11.99859739	    -72.68179366	     15.98322095	     -5.49636577	      5.40103047
      4.42000000	    -17.94983683	      7.32556747	     -5.95168619	     -0.74814903	     -0.01081838	     -0.24107296	     34.74533706	     -0.55997068	      6.20768554	    -68.71791961	      4.86854036	    -27.64613507	   -137.95588671	     23.46138865	     11.52961436	      8.85996789	    -12.55972284	     19.36039508	     11.74752279	    -72.54715224	     15.88507344	     -5.15344167	      5.05399411
      4.42500000	    -17.93819684	      6.92199617	     -5.75260013	     -0.74143886	     -0.00955700	     -0.24107501	     35.39586504	     -0.12573935	      6.10149806	    -68.36853470	      6.52447873	    -26.62684777	   -138.76579308	     22.49541665	     11.21752888	      9.46240869	    -11.83437778	     19.23234266	     11.54521152	    -72.40289332	     15.79319013	     -4.82151017	      4.67427940
      4.43000000	    -17.94035913	      6.53344131	     -5.53052480	     -0.73478283	     -0.00839668	     -0.24107676	     36.04687057	      0.27892329	      5.99623819	    -67.95474899	      8.08980827	    -25.53620243	   -139.41299389	     21.58777201	     10.91027378	      9.98409272	    -11.17034307	     19.12875482	     11.42945549	    -72.27730263	     15.71297352	     -4.51644395	      4.22973191
      4.43500000	    -17.94518990	      6.16389073	     -5.27240053	     -0.72812953	     -0.00730516	     -0.24115810	     36.67597007	      0.61421892	      5.84663498	    -67.45033507	      9.55913966	    -24.44293668	   -140.03960019	     20.69496620	     10.62919470	     10.56065924	    -10.51619278	     18.97565169	     11.26505915	    -72.13813585	     15.63761698	     -4.24015923	      3.82958402
      4.44000000	    -18.00023038	      5.79916928	     -4.94495444	     -0.72155849	     -0.00637208	     -0.24124078	     37.34505780	      0.90656350	      5.63849757	    -66.89212287	     10.87441836	    -23.35579863	   -140.32750968	     19.96171602	     10.34410839	     10.84086423	    -10.03896659	     18.97739776	     11.51312496	    -72.09032979	     15.60620822	     -3.99756979	      3.38307848
      4.44500000	    -18.02334616	      5.49441827	     -4.62748658	     -0.71498948	     -0.00549776	     -0.24133412	     37.97099550	      1.12627672	      5.47268889	    -66.27077812	     12.08565013	    -22.28093348	   -140.62071045	     19.19254034	     10.11837917	     11.17588953	     -9.53630513	     18.91069611	     11.63122068	    -72.04946241	     15.54766065	     -3.81409652	      2.94495150
      4.45000000	    -17.98600443	      5.22461059	     -4.31538047	     -0.70837729	     -0.00459766	     -0.24155209	     38.50609714	      1.28324491	      5.33484001	    -65.54799719	     13.10690697	    -21.31075230	   -141.14525143	     18.26530543	      9.94595174	     11.96552008	     -8.85439254	     18.59692975	     11.18059527	    -71.89751603	     15.43135421	     -3.65347762	      2.50506199
      4.45500000	    -18.04455564	      4.98630649	     -3.95471943	     -0.70187538	     -0.00396328	     -0.24164923	     39.14095815	      1.40132330	      5.16190513	    -64.79042386	     14.04714846	    -20.43137566	   -141.35321654	     17.61191398	      9.78011069	     12.17959350	     -8.46475907	     18.57533453	     11.44210189	    -71.84008092	     15.41248851	     -3.55784449	      2.06354397
      4.46000000	    -18.06941910	      4.77346788	     -3.57717071	     -0.69536880	     -0.00336130	     -0.24179392	     39.71657073	      1.46370054	      4.98458899	    -63.95832373	     14.85712369	    -19.63230403	   -141.55043108	     16.92033551	      9.64864258	     12.45349815	     -8.06245004	     18.49987149	     11.60737213	    -71.78927358	     15.35423010	     -3.49246190	      1.61000360
      4.46500000	    -18.03290310	      4.56013943	     -3.19221020	     -0.68880145	     -0.00272094	     -0.24201632	     40.18200116	      1.49846249	      4.79809890	    -63.00960138	     15.49290276	    -18.99876194	   -141.89565293	     16.08402994	      9.52532584	     13.12207189	     -7.52098777	     18.23887660	     11.31591090	    -71.60732520	     15.23804393	     -3.42486959	      1.12289294
      4.47000000	    -18.08481793	      4.42648589	     -2.81143456	     -0.68232326	     -0.00235975	     -0.24211421	     40.75462450	      1.47698811	      4.66059804	    -62.05539246	     16.13905758	    -18.39861124	   -142.02267786	     15.47418949	      9.46286541	     13.29975700	     -7.19476969	     18.19372618	     11.53452539	    -71.55269522	     15.21367702	     -3.44878067	      0.72221106
